<?xml version="1.0" encoding="utf-8"?>
<!-- Favicon: Jon's handwritten signature G (the Lustre launcher mark),
     ember->amber gradient stroke on an espresso ground. -->
<svg xmlns="http://www.w3.org/2000/svg" viewBox="0 0 512 512">
  <defs>
    <linearGradient id="lustre" x1="0" y1="0" x2="1" y2="0.17">
      <stop offset="0" stop-color="#ff7a1a"/>
      <stop offset="1" stop-color="#ffc35c"/>
    </linearGradient>
  </defs>
  <rect width="512" height="512" rx="112" fill="#1b1008"/>
  <g transform="translate(-358.13 -43.31) scale(1.29293)">
    <path fill="none" stroke="url(#lustre)" stroke-width="13" stroke-linecap="round" stroke-linejoin="round"
      d="M458.64,155.85c-1.31-4.59-38.98,3.93-69.77,40.62s-11.14,59.95,29.81,56.02c40.95-3.93,90.3-32.39,108.1-53.72c20.37-24.42,5.57-48.48-44.88-26.21s-98.78,74.6-92.7,109.1c6.11,34.67,65.51,33.07,112.69,11.12c47.17-21.95,45.29-46.22,3.28-42.91c-39.84,3.13-70.1,23.26-60.6,20.96s153.96-22.28,129.06-15.72"/>
  </g>
</svg>
